<svg width="128" height="45" viewBox="0 0 128 45" fill="none" xmlns="http://www.w3.org/2000/svg">
<path d="M19.36 4.8V11.04H8.08V16H16.4V21.96H8.08V33H0.24V4.8H19.36Z" fill="#AF4420"/>
<path d="M26.6219 8.48C25.2352 8.48 24.1152 8.10667 23.2619 7.36C22.4352 6.58667 22.0219 5.62667 22.0219 4.48C22.0219 3.30667 22.4352 2.33333 23.2619 1.56C24.1152 0.786665 25.2352 0.399998 26.6219 0.399998C27.9819 0.399998 29.0752 0.786665 29.9019 1.56C30.7552 2.33333 31.1819 3.30667 31.1819 4.48C31.1819 5.62667 30.7552 6.58667 29.9019 7.36C29.0752 8.10667 27.9819 8.48 26.6219 8.48ZM30.5019 10.56V33H22.6619V10.56H30.5019Z" fill="#A26ACB"/>
<path d="M43.2466 10.28C44.7666 10.28 46.0866 10.5867 47.2066 11.2C48.3532 11.8133 49.2332 12.64 49.8466 13.68V10.56H57.6866V32.76C57.6866 34.8667 57.2866 36.76 56.4866 38.44C55.6866 40.1467 54.4332 41.5067 52.7266 42.52C51.0466 43.5333 48.9132 44.04 46.3266 44.04C42.8599 44.04 40.0866 43.2267 38.0066 41.6C35.9266 39.9733 34.7399 37.76 34.4466 34.96H42.1666C42.3266 35.68 42.7266 36.24 43.3666 36.64C44.0066 37.04 44.8332 37.24 45.8466 37.24C48.5132 37.24 49.8466 35.7467 49.8466 32.76V29.88C49.2332 30.92 48.3532 31.7467 47.2066 32.36C46.0866 32.9733 44.7666 33.28 43.2466 33.28C41.4599 33.28 39.8332 32.8133 38.3666 31.88C36.9266 30.9467 35.7799 29.6133 34.9266 27.88C34.0999 26.12 33.6866 24.08 33.6866 21.76C33.6866 19.44 34.0999 17.4133 34.9266 15.68C35.7799 13.9467 36.9266 12.6133 38.3666 11.68C39.8332 10.7467 41.4599 10.28 43.2466 10.28ZM49.8466 21.76C49.8466 20.32 49.4466 19.1867 48.6466 18.36C47.8732 17.5333 46.9132 17.12 45.7666 17.12C44.5932 17.12 43.6199 17.5333 42.8466 18.36C42.0732 19.16 41.6866 20.2933 41.6866 21.76C41.6866 23.2 42.0732 24.3467 42.8466 25.2C43.6199 26.0267 44.5932 26.44 45.7666 26.44C46.9132 26.44 47.8732 26.0267 48.6466 25.2C49.4466 24.3733 49.8466 23.2267 49.8466 21.76Z" fill="#2DB489"/>
<path d="M91.4741 10.36C94.3007 10.36 96.5141 11.2133 98.1141 12.92C99.7407 14.6267 100.554 16.96 100.554 19.92V33H92.7141V20.96C92.7141 19.76 92.3807 18.8267 91.7141 18.16C91.0474 17.4933 90.1407 17.16 88.9941 17.16C87.8474 17.16 86.9407 17.4933 86.2741 18.16C85.6074 18.8267 85.2741 19.76 85.2741 20.96V33H77.4341V20.96C77.4341 19.76 77.1007 18.8267 76.4341 18.16C75.7941 17.4933 74.9007 17.16 73.7541 17.16C72.5807 17.16 71.6607 17.4933 70.9941 18.16C70.3274 18.8267 69.9941 19.76 69.9941 20.96V33H62.1541V10.56H69.9941V13.52C70.6874 12.56 71.5807 11.8 72.6741 11.24C73.7941 10.6533 75.0741 10.36 76.5141 10.36C78.1674 10.36 79.6341 10.72 80.9141 11.44C82.2207 12.16 83.2474 13.1733 83.9941 14.48C84.7941 13.2533 85.8474 12.2667 87.1541 11.52C88.4607 10.7467 89.9007 10.36 91.4741 10.36Z" fill="#D38B80"/>
<path d="M103.569 21.76C103.569 19.44 103.983 17.4133 104.809 15.68C105.663 13.9467 106.809 12.6133 108.249 11.68C109.716 10.7467 111.343 10.28 113.129 10.28C114.676 10.28 116.009 10.5867 117.129 11.2C118.249 11.8133 119.116 12.64 119.729 13.68V10.56H127.569V33H119.729V29.88C119.116 30.92 118.236 31.7467 117.089 32.36C115.969 32.9733 114.649 33.28 113.129 33.28C111.343 33.28 109.716 32.8133 108.249 31.88C106.809 30.9467 105.663 29.6133 104.809 27.88C103.983 26.12 103.569 24.08 103.569 21.76ZM119.729 21.76C119.729 20.32 119.329 19.1867 118.529 18.36C117.756 17.5333 116.796 17.12 115.649 17.12C114.476 17.12 113.503 17.5333 112.729 18.36C111.956 19.16 111.569 20.2933 111.569 21.76C111.569 23.2 111.956 24.3467 112.729 25.2C113.503 26.0267 114.476 26.44 115.649 26.44C116.796 26.44 117.756 26.0267 118.529 25.2C119.329 24.3733 119.729 23.2267 119.729 21.76Z" fill="#24A4C1"/>
</svg>
